<svg width="56" height="36" viewBox="0 0 56 36" fill="none" xmlns="http://www.w3.org/2000/svg">
<g clip-path="url(#clip0)">
<path d="M55.9389 26.9543C55.6943 26.4687 55.2664 26.4687 55.0218 26.8936C52.6987 30.4147 48.786 34.6643 44.3231 34.4822C41.4498 34.3 39.9825 31.6289 41.6943 26.7722C44.6288 28.1078 49.9476 27.3793 51.9039 24.526C54.1659 21.7941 54.5939 18.5766 53.6157 17.3017C52.7598 16.1483 51.7817 15.3591 50.4367 14.5091C47.7467 12.9914 42.2445 15.7233 38.7598 22.644C38.5153 23.069 38.3319 23.494 38.2096 23.9189C37.6594 23.7368 37.1092 23.5547 36.559 23.3118C37.8428 18.3945 36.9869 14.3877 33.3188 14.3877C31.9127 14.3877 30.262 15.2376 28.6725 16.6339C30.3231 13.7199 32.6463 10.0167 33.4411 8.49902C35.6419 4.49227 35.6419 2.12465 34.8472 0.606945C34.4192 -0.121554 33.9913 -0.121554 33.5022 0.546237C30.9956 4.06732 25.2489 14.3877 21.3974 21.9763C20.0524 22.7048 18.5852 23.3118 17.6681 23.3118C17.7293 22.8869 17.7293 22.5226 17.7904 22.0977C18.0961 18.2731 16.5066 17.9088 15.2838 16.209C14.1834 14.752 13.2664 14.2663 11.6157 14.3877C8.37555 14.5698 5.13537 17.666 3.05677 21.3085C0.611357 25.558 -0.183403 30.2326 2.20088 33.3287C4.34061 36.1213 7.03057 36.3034 8.9869 35.6963C12.9607 34.3607 16.3231 28.9577 17.4847 24.4653C18.2795 24.4653 19.5633 23.9796 20.786 23.3118C19.3188 26.2258 18.2183 28.6542 17.8515 29.8683C16.7511 33.1466 17.3013 34.6643 18.0961 35.757C18.4017 36.182 18.7686 36.1213 18.952 35.5749C19.441 34.4822 20.0524 33.1466 20.4804 32.0538C21.4585 34.4215 23.2926 35.8177 26.1048 35.8177C29.2227 35.8177 32.524 32.7823 35.0917 27.1972C35.4585 26.408 35.7642 25.6188 36.0087 24.8295C36.4978 25.0117 37.048 25.2545 37.5983 25.4366C35.9476 31.2646 38.4542 36.2427 44.3843 36.1213C48.5415 36.0606 52.6376 33.6322 54.8996 30.354C55.9389 28.897 56.1223 27.3793 55.9389 26.9543ZM42.7948 23.9796C45.3013 18.9408 49.7642 15.7233 50.9258 16.6339C51.6594 17.241 50.9869 19.3051 49.2751 21.5513C47.7467 23.5547 45.607 25.6188 42.3668 24.8903C42.4891 24.5867 42.6725 24.2832 42.7948 23.9796ZM12.0437 27.9864C9.41485 32.9037 6.11354 34.7857 4.64629 33.5108C3.24018 32.3574 4.03494 27.44 6.29695 23.3725C7.39738 21.3692 8.9869 19.6086 10.4542 18.3338C10.5153 20.2764 11.7991 22.1584 12.8996 23.0083C13.2052 23.2511 13.5721 23.494 13.9389 23.6761C13.5109 25.0117 12.8384 26.4687 12.0437 27.9864ZM14.3057 22.2798C13.4498 21.4906 12.8384 19.9122 13.1441 18.5159C13.3886 16.9982 14.4891 16.6339 14.7336 18.3338C14.917 19.3051 14.7336 20.6407 14.3057 22.2798ZM32.524 16.5125C33.4411 16.5732 33.9913 18.3945 33.0742 21.7334C30.5677 20.3371 28.9782 18.5766 31.179 16.7553C31.607 16.5125 32.0349 16.4518 32.524 16.5125ZM31.3013 25.9223C28.2445 32.0538 25.738 33.693 23.8428 33.268C22.3755 32.9645 21.7031 31.2646 21.5808 29.6862C23.5371 25.558 26.1659 21.1263 28.5502 18.6373C28.6725 18.5159 28.7948 18.3945 28.917 18.2731C28.6725 19.4265 29.1616 21.1263 32.524 23.069C32.2795 23.9189 31.8515 24.8903 31.3013 25.9223Z" fill="#C3996B"/>
<path d="M14.6724 6.85986C15.2838 6.92057 15.7728 7.22411 16.1397 7.64907C16.3842 7.95261 16.5676 8.31686 16.6287 8.6204C16.6899 8.92394 16.751 9.22749 16.751 9.59173C16.751 10.1988 16.5676 10.7452 16.2619 11.2916C16.0785 11.6558 15.834 11.9594 15.4672 12.2629C15.1615 12.5057 14.8558 12.6879 14.4279 12.87C14.1833 12.9307 13.8776 12.9914 13.572 12.9914C13.0829 12.9914 12.6549 12.8093 12.2881 12.5057C11.9824 12.2629 11.799 11.8986 11.6156 11.5951C11.4934 11.3523 11.4322 11.1094 11.4322 10.8666C11.4322 10.6845 11.3711 10.5024 11.4322 10.3202C11.4322 9.89528 11.5545 9.47032 11.6768 9.10607C11.8602 8.68111 12.0436 8.31686 12.4104 7.95261C12.6549 7.64907 12.9606 7.40624 13.3886 7.22411C13.6331 7.1027 13.9388 6.98128 14.2445 6.98128C14.2445 6.98128 14.2445 6.98128 14.3056 6.98128C14.3667 6.98128 14.4279 6.98128 14.489 6.98128C14.5501 6.85986 14.6113 6.85986 14.6724 6.85986C14.6113 6.85986 14.6113 6.85986 14.6724 6.85986C14.6724 6.85986 14.6113 6.85986 14.6724 6.85986Z" fill="#C3996B"/>
<path d="M21.7641 13.7198V13.7805C21.7641 13.8413 21.7641 13.9627 21.7641 14.0234V14.0841C21.7641 14.0841 21.7641 14.0841 21.7641 14.1448C21.7641 14.2055 21.7641 14.2055 21.7641 14.2662C21.7641 14.3269 21.703 14.3876 21.703 14.4483C21.5807 14.8126 21.4585 15.1768 21.2139 15.5411C20.9694 15.9053 20.7248 16.2089 20.358 16.4517C19.9912 16.6945 19.6244 16.8767 19.2576 16.9981C18.9519 17.0588 18.6462 17.0588 18.3406 16.9981C17.9126 16.8767 17.6069 16.6338 17.3624 16.2696C17.1179 15.966 17.0567 15.6018 16.9956 15.2375C16.9345 14.934 16.9345 14.6912 16.9956 14.3876C16.9956 14.2662 17.0567 14.0841 17.0567 13.9627C17.1179 13.6591 17.2401 13.4163 17.3624 13.1128C17.6681 12.6271 18.0349 12.2021 18.524 11.8379C18.8297 11.6558 19.1965 11.4736 19.5633 11.4129C19.869 11.3522 20.2358 11.3522 20.5414 11.4736C20.9083 11.595 21.2139 11.8379 21.4585 12.1414C21.6419 12.445 21.7641 12.7485 21.8253 13.1128C21.7641 13.2949 21.8253 13.477 21.7641 13.7198C21.7641 13.7198 21.8253 13.6591 21.7641 13.7198Z" fill="#C3996B"/>
<path d="M6.66367 8.07422C6.7248 8.07422 6.7248 8.07422 6.7248 8.07422C6.78594 8.07422 6.84707 8.07422 6.90821 8.07422C6.90821 8.07422 6.90821 8.07422 6.96935 8.07422C7.27502 8.07422 7.5807 8.19564 7.82524 8.31705C8.19205 8.49918 8.49773 8.74201 8.74227 8.98484C9.04795 9.28838 9.29249 9.71334 9.41476 10.0776C9.53703 10.4418 9.6593 10.8668 9.6593 11.231C9.6593 11.4132 9.6593 11.5953 9.6593 11.7167C9.59817 11.9595 9.53703 12.2024 9.4759 12.4452C9.35363 12.8095 9.10908 13.113 8.86454 13.3558C8.49773 13.6594 8.13092 13.8415 7.64183 13.8415C7.33616 13.8415 7.09162 13.8415 6.84707 13.7201C6.48026 13.5987 6.17459 13.4165 5.86891 13.1737C5.56323 12.8702 5.31869 12.5666 5.13528 12.2024C4.82961 11.7167 4.70734 11.1703 4.70734 10.624C4.70734 10.3204 4.70734 10.0169 4.82961 9.71334C4.95188 9.34909 5.07415 9.04555 5.31869 8.74201C5.56323 8.43847 5.99118 8.19564 6.66367 8.07422C6.60253 8.07422 6.60253 8.07422 6.66367 8.07422Z" fill="#C3996B"/>
<path d="M0 14.6914C0 14.5092 0 14.3271 0 14.145C0.0611354 13.7807 0.122271 13.4772 0.305677 13.1736C0.489083 12.8094 0.79476 12.5666 1.16157 12.4451C1.46725 12.3237 1.77293 12.3237 2.0786 12.3237C2.44542 12.3844 2.81223 12.5059 3.1179 12.688C3.60699 12.9915 3.9738 13.3558 4.27948 13.8414C4.46288 14.0843 4.58515 14.3271 4.64629 14.6306C4.70742 14.7521 4.70742 14.9342 4.76856 15.0556C4.89083 15.3591 4.89083 15.602 4.89083 15.8448C4.89083 16.2091 4.76856 16.5733 4.58515 16.8769C4.34061 17.2411 4.03493 17.4839 3.66812 17.6053C3.36245 17.7268 3.05677 17.7268 2.75109 17.6661C2.32314 17.6054 1.95633 17.4839 1.58952 17.2411C1.22271 16.9983 0.978166 16.7554 0.733625 16.4519C0.489083 16.1484 0.305677 15.7841 0.183406 15.4199C0.183406 15.3591 0.122271 15.2984 0.122271 15.2377V15.177C0.122271 15.177 0.122271 15.177 0.122271 15.1163V15.0556C0.122271 14.9949 0.122271 14.8735 0.0611354 14.8128C0.0611354 14.8128 0 14.7521 0 14.6914C0 14.6914 0 14.7521 0 14.6914Z" fill="#C3996B"/>
</g>
<defs>
<clipPath id="clip0">
<rect width="56" height="36" fill="#C3996B"/>
</clipPath>
</defs>
</svg>
  