<svg width="36" height="36" viewBox="0 0 36 36" fill="none" xmlns="http://www.w3.org/2000/svg">
<path opacity="0.2" d="M1.05109 4.52504C1.33196 2.7356 2.7356 1.33196 4.52504 1.05109C13.4537 -0.350364 22.5463 -0.350364 31.475 1.05109C33.2644 1.33196 34.668 2.7356 34.9489 4.52504C36.3504 13.4537 36.3504 22.5463 34.9489 31.475C34.668 33.2644 33.2644 34.668 31.475 34.9489C22.5463 36.3504 13.4537 36.3504 4.52504 34.9489C2.73561 34.668 1.33196 33.2644 1.05109 31.475C-0.350363 22.5463 -0.350363 13.4537 1.05109 4.52504Z" fill="white"/>
<path d="M23.5 18.9168H18.9167V23.5002C18.9167 24.0043 18.5042 24.4168 18 24.4168C17.4958 24.4168 17.0833 24.0043 17.0833 23.5002V18.9168H12.5C11.9958 18.9168 11.5833 18.5043 11.5833 18.0002C11.5833 17.496 11.9958 17.0835 12.5 17.0835H17.0833V12.5002C17.0833 11.996 17.4958 11.5835 18 11.5835C18.5042 11.5835 18.9167 11.996 18.9167 12.5002V17.0835H23.5C24.0042 17.0835 24.4167 17.496 24.4167 18.0002C24.4167 18.5043 24.0042 18.9168 23.5 18.9168Z" fill="white"/>
</svg>
