<svg width="36" height="36" viewBox="0 0 36 36" fill="none" xmlns="http://www.w3.org/2000/svg">
<path opacity="0.76" d="M1.05109 4.52504C1.33196 2.7356 2.7356 1.33196 4.52504 1.05109C13.4537 -0.350364 22.5463 -0.350364 31.475 1.05109C33.2644 1.33196 34.668 2.7356 34.9489 4.52504C36.3504 13.4537 36.3504 22.5463 34.9489 31.475C34.668 33.2644 33.2644 34.668 31.475 34.9489C22.5463 36.3504 13.4537 36.3504 4.52504 34.9489C2.73561 34.668 1.33196 33.2644 1.05109 31.475C-0.350363 22.5463 -0.350363 13.4537 1.05109 4.52504Z" fill="#F4F3F1"/>
<path fill-rule="evenodd" clip-rule="evenodd" d="M19 12C19 11.4477 18.5523 11 18 11C17.4477 11 17 11.4477 17 12V17H12C11.4477 17 11 17.4477 11 18C11 18.5523 11.4477 19 12 19H17V24C17 24.5523 17.4477 25 18 25C18.5523 25 19 24.5523 19 24V19H24C24.5523 19 25 18.5523 25 18C25 17.4477 24.5523 17 24 17H19V12Z" fill="#585F5F"/>
</svg>
