<svg width="35" height="28" viewBox="0 0 35 28" fill="none" xmlns="http://www.w3.org/2000/svg">
<g clip-path="url(#clip0)">
<path d="M2.32155 10.7433C2.73193 9.77652 4.36175 6.63452 17.0133 6.63452C29.6649 6.63452 32.4556 9.54691 32.9128 10.5137C33.3584 11.4684 34.9413 22.0907 34.9413 22.0907C34.9413 22.0907 37.0284 27.988 17.541 27.988C-1.94646 27.988 0.0702934 21.7765 0.0702934 21.7765C0.0702934 21.7765 2.05187 11.3838 2.32155 10.7433Z" fill="#C3996B"/>
<path d="M31.0737 10.792C31.0766 9.15682 25.0576 7.82 17.63 7.8061C10.2024 7.79221 4.17875 9.1065 4.17587 10.7417C4.17299 12.3768 10.1919 13.7137 17.6196 13.7276C25.0472 13.7414 31.0708 12.4271 31.0737 10.792Z" fill="white"/>
<path d="M26.5343 11.7825C27.6951 9.54681 28.8911 7.34741 29.0904 7.19031C29.407 6.93653 29.6415 7.09363 29.7588 7.12989C31.3534 7.69786 32.4087 7.17823 32.995 6.05436C33.6281 4.83381 33.1122 3.2749 31.9397 2.59816C31.0837 2.1027 30.0871 2.1752 29.3132 2.67067C29.1256 2.69484 29.1256 2.56191 29.1256 2.56191C29.1022 1.6314 28.598 0.725053 27.7303 0.277923C26.5343 -0.350476 24.9866 0.0845691 24.3534 1.29303C23.7672 2.4169 23.9313 3.60119 25.2797 4.66463C25.3852 4.73714 25.6315 4.85798 25.608 5.26886C25.5963 5.52264 24.4824 7.77037 23.3216 10.006L23.2161 10.1994C22.0553 12.435 20.8593 14.6344 20.6599 14.7915C20.3434 15.0453 20.1089 14.8882 19.9916 14.8519C18.397 14.284 17.3417 14.8036 16.7554 15.9275C16.1223 17.148 16.6382 18.7069 17.8107 19.3837C18.6666 19.8791 19.6633 19.8066 20.4372 19.3112C20.4372 19.3112 20.613 19.2507 20.6248 19.4199C20.6482 20.3504 21.1524 21.2568 22.0201 21.7039C23.2161 22.3323 24.7638 21.8973 25.397 20.6888C25.9832 19.5649 25.8191 18.3806 24.4707 17.3172C24.3651 17.2447 24.1189 17.1238 24.1424 16.713C24.1541 16.4592 25.268 14.2115 26.4288 11.9758L26.5343 11.7825Z" fill="#C3996B"/>
</g>
<defs>
<clipPath id="clip0">
<rect width="35" height="28" fill="white"/>
</clipPath>
</defs>
</svg>
