<svg width="13" height="12" viewBox="0 0 13 12" fill="none" xmlns="http://www.w3.org/2000/svg">
<g clip-path="url(#clip0)">
<path d="M0.551634 1.9989C0.419026 1.9989 0.29185 2.04848 0.198082 2.13673C0.104314 2.22499 0.0516357 2.34468 0.0516357 2.46949C0.0519851 2.57215 0.0879947 2.67189 0.154174 2.7535L1.55163 4.82243V9.05772C1.55163 9.57772 1.99913 9.9989 2.55163 9.9989H8.5516C9.1041 9.9989 9.5516 9.57772 9.5516 9.05772V2.94008H10.0516C10.6099 2.94008 11.0516 3.35576 11.0516 3.88125V6.2342C11.0507 6.29655 11.0629 6.35847 11.0876 6.41633C11.1123 6.4742 11.149 6.52687 11.1955 6.57128C11.242 6.61569 11.2975 6.65095 11.3586 6.67502C11.4197 6.69909 11.4853 6.71149 11.5516 6.71149C11.6179 6.71149 11.6835 6.69909 11.7446 6.67502C11.8057 6.65095 11.8611 6.61569 11.9077 6.57128C11.9542 6.52687 11.9909 6.4742 12.0156 6.41633C12.0403 6.35847 12.0525 6.29655 12.0516 6.2342V3.88125C12.0516 2.84721 11.1503 1.9989 10.0516 1.9989H8.5516H7.5516H0.551634ZM5.55161 4.35184H8.0516C8.3276 4.35184 8.5516 4.56267 8.5516 4.82243C8.5516 5.0822 8.3276 5.29302 8.0516 5.29302H5.55161C5.27561 5.29302 5.05162 5.0822 5.05162 4.82243C5.05162 4.56267 5.27561 4.35184 5.55161 4.35184ZM6.55161 6.70478H8.0516C8.3276 6.70478 8.5516 6.91561 8.5516 7.17537C8.5516 7.43514 8.3276 7.64596 8.0516 7.64596H6.55161C6.27561 7.64596 6.05161 7.43514 6.05161 7.17537C6.05161 6.91561 6.27561 6.70478 6.55161 6.70478Z" fill="#A6ABAB"/>
</g>
<defs>
<clipPath id="clip0">
<rect width="12" height="12" fill="white" transform="translate(0.0516357 -0.00109863)"/>
</clipPath>
</defs>
</svg>
