<svg width="16" height="16" viewBox="0 0 16 16" fill="none" xmlns="http://www.w3.org/2000/svg">
    <path d="M7.99998 1.33325C4.31998 1.33325 1.33331 4.31992 1.33331 7.99992C1.33331 11.6799 4.31998 14.6666 7.99998 14.6666C11.68 14.6666 14.6666 11.6799 14.6666 7.99992C14.6666 4.31992 11.68 1.33325 7.99998 1.33325ZM7.99998 13.3333C5.05998 13.3333 2.66665 10.9399 2.66665 7.99992C2.66665 5.05992 5.05998 2.66659 7.99998 2.66659C10.94 2.66659 13.3333 5.05992 13.3333 7.99992C13.3333 10.9399 10.94 13.3333 7.99998 13.3333ZM10.5866 5.52659L6.66665 9.44659L5.41331 8.19325C5.15331 7.93325 4.73331 7.93325 4.47331 8.19325C4.21331 8.45325 4.21331 8.87325 4.47331 9.13325L6.19998 10.8599C6.45998 11.1199 6.87998 11.1199 7.13998 10.8599L11.5333 6.46659C11.7933 6.20659 11.7933 5.78659 11.5333 5.52659C11.2733 5.26659 10.8466 5.26659 10.5866 5.52659Z"
          fill="#89C920"/>
</svg>
