<svg width="12" height="12" viewBox="0 0 12 12" fill="none" xmlns="http://www.w3.org/2000/svg">
<path d="M0.499998 2C0.36739 2 0.240214 2.04958 0.146446 2.13783C0.0526782 2.22608 0 2.34578 0 2.47059C0.000349365 2.57325 0.0363589 2.67299 0.102539 2.7546L1.49999 4.82353V9.05882C1.49999 9.57882 1.94749 10 2.49999 10H8.49996C9.05246 10 9.49996 9.57882 9.49996 9.05882V2.94118H9.99996C10.5583 2.94118 11 3.35686 11 3.88235V6.23529C10.999 6.29765 11.0113 6.35956 11.036 6.41743C11.0607 6.4753 11.0974 6.52797 11.1439 6.57238C11.1904 6.61679 11.2458 6.65205 11.307 6.67612C11.3681 6.70019 11.4337 6.71258 11.5 6.71258C11.5662 6.71258 11.6318 6.70019 11.6929 6.67612C11.7541 6.65205 11.8095 6.61679 11.856 6.57238C11.9026 6.52797 11.9392 6.4753 11.9639 6.41743C11.9886 6.35956 12.0009 6.29765 12 6.23529V3.88235C12 2.84831 11.0986 2 9.99996 2H8.49996H7.49997H0.499998ZM5.49998 4.35294H7.99997C8.27597 4.35294 8.49996 4.56376 8.49996 4.82353C8.49996 5.08329 8.27597 5.29412 7.99997 5.29412H5.49998C5.22398 5.29412 4.99998 5.08329 4.99998 4.82353C4.99998 4.56376 5.22398 4.35294 5.49998 4.35294ZM6.49997 6.70588H7.99997C8.27597 6.70588 8.49996 6.91671 8.49996 7.17647C8.49996 7.43624 8.27597 7.64706 7.99997 7.64706H6.49997C6.22397 7.64706 5.99998 7.43624 5.99998 7.17647C5.99998 6.91671 6.22397 6.70588 6.49997 6.70588Z" fill="#A6ABAB"/>
</svg>
