<svg width="60" height="60" viewBox="0 0 60 60" fill="none" xmlns="http://www.w3.org/2000/svg">
<path d="M50.1501 25.3501C51.5501 26.5001 53.6001 26.4001 54.8751 25.1251C56.3501 23.6501 56.2501 21.2001 54.6251 19.8751C45.6501 12.5251 34.1251 9.80015 23.2501 11.7251L29.7251 18.2001C36.9501 18.1251 44.2251 20.5001 50.1501 25.3501ZM44.4751 29.9251C42.5251 28.5001 40.4001 27.4251 38.1751 26.6751L45.5501 34.0501C46.1501 32.6001 45.8001 30.8751 44.4751 29.9251ZM34.8751 40.5751C31.8251 39.0001 28.1751 39.0001 25.1001 40.5751C23.6251 41.3501 23.3501 43.3751 24.5251 44.5501L28.2001 48.2251C29.1751 49.2001 30.7501 49.2001 31.7251 48.2251L35.4001 44.5501C36.6251 43.3751 36.3751 41.3501 34.8751 40.5751ZM49.2001 44.7501L10.3001 5.85015C9.32509 4.87515 7.75009 4.87515 6.77509 5.85015C5.80009 6.82515 5.80009 8.40015 6.77509 9.37515L12.6251 15.2501C10.1001 16.5001 7.65009 18.0251 5.40009 19.8751C3.77509 21.2001 3.67509 23.6501 5.15009 25.1251C6.42509 26.4001 8.45009 26.5251 9.82509 25.3751C12.3251 23.3251 15.0751 21.7251 17.9501 20.5501L23.5251 26.1251C20.7001 26.8751 18.0001 28.1251 15.5501 29.9001C13.8251 31.1501 13.7251 33.6751 15.2251 35.1751L15.2501 35.2001C16.4751 36.4251 18.4001 36.5501 19.8251 35.5251C22.8001 33.4251 26.2751 32.3751 29.7501 32.3001L45.6751 48.2251C46.6501 49.2001 48.2251 49.2001 49.2001 48.2251C50.1751 47.3001 50.1751 45.7251 49.2001 44.7501Z" fill="#CCCCCC"/>
</svg>
