<svg width="16" height="16" viewBox="0 0 16 16" fill="none" xmlns="http://www.w3.org/2000/svg">
<path d="M3.6665 14.0802C3.6665 14.95 4.38919 15.6664 5.2665 15.6664L10.0665 15.6664C10.9438 15.6664 11.6665 14.95 11.6665 14.0802L11.6665 3.50591C11.6665 2.63619 10.9438 1.91977 10.0665 1.91977L5.2665 1.91977C4.38919 1.91977 3.6665 2.63619 3.6665 3.50591L3.6665 14.0802ZM4.73317 14.0802L4.73317 3.50591C4.73317 3.20717 4.96515 2.9772 5.2665 2.9772L10.0665 2.9772C10.3679 2.9772 10.5998 3.20717 10.5998 3.50591L10.5998 14.0802C10.5998 14.379 10.3679 14.6089 10.0665 14.6089L5.2665 14.6089C4.96515 14.6089 4.73317 14.379 4.73317 14.0802ZM6.33317 1.39105L8.99984 1.39105L8.99984 0.862334C8.99984 0.570483 8.7609 0.333618 8.4665 0.333618L6.8665 0.333618C6.5721 0.333618 6.33317 0.570483 6.33317 0.862334L6.33317 1.39105Z" fill="#091616"/>
<rect x="5.6665" y="13.6664" width="3" height="4" transform="rotate(-90 5.6665 13.6664)" fill="#4CD964"/>
</svg>
