<svg width="175" height="143" viewBox="0 0 175 143" fill="none" xmlns="http://www.w3.org/2000/svg">
<g opacity="0.86">
<path d="M128.846 42.4114L113.12 70.4996C103.883 86.5931 121.308 114.236 140.357 114.947L172.822 115.526C191.583 115.743 203.079 95.8165 193.068 79.771L171.025 44.2202C161.701 27.15 138.083 26.3179 128.846 42.4114Z" fill="#D3A77B"/>
<path d="M98.8792 88.7227C94.5889 79.1349 80.1777 75.7141 66.11 80.7161C52.3358 86.2209 44.947 98.1869 48.7414 108.044C53.0318 117.632 67.4431 121.053 81.5108 116.051C95.2851 110.546 103.17 98.3104 98.8792 88.7227Z" fill="#D3A77B"/>
<path d="M117.964 45.5931C116.946 34.9306 104.086 27.4069 89.0079 28.3473C73.9294 29.2877 63.0361 38.5089 63.7618 48.6707C64.78 59.3332 77.6392 66.8568 92.7177 65.9165C107.796 64.9761 118.69 55.7548 117.964 45.5931Z" fill="#D3A77B"/>
<path d="M133.107 169.287C141.733 175.144 155.741 170.166 163.885 158.488C171.736 146.309 171.726 131.812 162.314 125.723C153.688 119.865 139.679 124.844 131.536 136.522C124.179 148.432 124.48 163.43 133.107 169.287Z" fill="#D3A77B"/>
<path d="M117.303 121.902C110.543 113.666 95.6251 113.832 84.4024 122.576C72.684 131.589 69.0328 145.481 75.2973 153.986C82.0575 162.221 96.9757 162.055 108.198 153.312C119.917 144.299 123.568 130.407 117.303 121.902Z" fill="#D3A77B"/>
</g>
</svg>
