<svg width="49" height="37" viewBox="0 0 49 37" fill="none" xmlns="http://www.w3.org/2000/svg">
<g clip-path="url(#clip0)">
<path d="M46.2633 7.28788L42.0062 6.21763C35.273 5.04545 39.8777 1.12121 39.8777 1.12121C37.141 1.01928 35.4468 2.80303 35.4468 2.80303L37.5319 0C32.797 0 30.8856 4.58678 30.8856 4.58678L24.891 16.3595C24.2828 18.0413 22.8927 19.1116 21.3289 19.1116H9.12234H4.43085C4.43085 19.1116 1.21631 18.9077 0 15.0854C0 15.0854 0.173759 21.2521 2.12855 22.832C2.3023 22.9339 2.47606 23.0358 2.64982 23.0868C1.78103 24.5647 1.25975 26.3994 1.25975 28.3361V36.1336C1.25975 36.949 2.12855 37.3058 2.56294 36.6942L6.25532 31.6997H26.8892L28.5399 36.3884C28.8005 37.1529 29.7128 37.1019 29.93 36.3375L33.9699 21.6598C36.0984 15.0854 43.8307 14.6267 43.8307 14.6267C46.8715 14.219 49.0869 11.9766 49.0869 9.5303C49 7.84849 46.2633 7.28788 46.2633 7.28788Z" fill="#C3996B"/>
</g>
<defs>
<clipPath id="clip0">
<rect width="49" height="37" fill="white"/>
</clipPath>
</defs>
</svg>
